<svg width="18" height="18" viewBox="0 0 18 18" fill="none" xmlns="http://www.w3.org/2000/svg">
<g clip-path="url(#clip0_1444_115)">
<path d="M8.8 5C6.2 5 4.5 5.8 4.5 6.2C4.5 6.6 6.1 7.4 8.8 7.4V8.4C7.2 8.4 5.5 8.1 4.5 7.5V9.1C4.5 9.5 6.1 10.4 8.8 10.4V11.4C7.2 11.4 5.5 11.1 4.5 10.5V11.5C4.5 12.1 6.2 13 8.8 13C11.4 13 13.1 12.1 13.1 11.5V6.2C13.1 5.8 11.4 5 8.8 5Z" fill="#CAD5F9"/>
<path d="M15.7 0H1.9C0.8 0 0 0.8 0 1.9V15.7C0 16.7 0.8 17.6 1.9 17.6H15.7C16.7 17.6 17.6 16.8 17.6 15.7V1.9C17.6 0.8 16.8 0 15.7 0ZM14.1 11.6C14.1 13.2 11.4 14.1 8.8 14.1C6.2 14.1 3.5 13.2 3.5 11.6V6.2C3.5 3.2 14 3.2 14 6.2V11.6H14.1Z" fill="#CAD5F9"/>
</g>
<defs>
<clipPath id="clip0_1444_115">
<rect width="17.6" height="17.6" fill="white"/>
</clipPath>
</defs>
</svg>
