<svg width="42" height="28" viewBox="0 0 42 28" fill="none" xmlns="http://www.w3.org/2000/svg">
<path d="M2.71421 27C1.76896 27 0.999928 26.1669 0.999928 25.1429V2.85714C0.999928 1.83311 1.76896 1 2.71421 1H39.2856C40.2309 1 40.9999 1.83311 40.9999 2.85714V25.1429C40.9999 26.1669 40.2309 27 39.2856 27H2.71421Z" fill="#003399"/>
<path d="M0.499928 25.1429C0.499928 26.4046 1.45588 27.5 2.71421 27.5H39.2856C40.544 27.5 41.4999 26.4046 41.4999 25.1429V2.85714C41.4999 1.59541 40.544 0.5 39.2856 0.5H2.71421C1.45588 0.5 0.499928 1.59541 0.499928 2.85714V25.1429Z" stroke="#E0F5FF" stroke-opacity="0.3"/>
<path fill-rule="evenodd" clip-rule="evenodd" d="M20.599 8.58356L21.3908 8.35166L22.1826 8.58356L21.9507 7.79178L22.1826 7L21.3908 7.23191L20.599 7L20.8309 7.79178L20.599 8.58356ZM20.599 19.7811L21.3908 19.5491L22.1826 19.7811L21.9507 18.9893L22.1826 18.1975L21.3908 18.4294L20.599 18.1975L20.8309 18.9893L20.599 19.7811ZM26.9894 13.9504L26.1976 14.1823L26.4295 13.3905L26.1976 12.5987L26.9894 12.8307L27.7812 12.5987L27.5493 13.3905L27.7812 14.1823L26.9894 13.9504ZM15 14.1823L15.7918 13.9504L16.5836 14.1823L16.3517 13.3905L16.5836 12.5987L15.7918 12.8307L15 12.5987L15.2319 13.3905L15 14.1823ZM26.2394 11.151L25.4476 11.3829L25.6795 10.5912L25.4476 9.79937L26.2394 10.0313L27.0312 9.79937L26.7993 10.5912L27.0312 11.3829L26.2394 11.151ZM15.75 16.9817L16.5418 16.7498L17.3336 16.9817L17.1017 16.1899L17.3336 15.3981L16.5418 15.63L15.75 15.3981L15.9819 16.1899L15.75 16.9817ZM24.1899 9.10175L23.3981 9.33365L23.63 8.54187L23.3981 7.75009L24.1899 7.982L24.9817 7.75009L24.7498 8.54187L24.9817 9.33365L24.1899 9.10175ZM17.7995 19.031L18.5913 18.7991L19.3831 19.031L19.1512 18.2392L19.3831 17.4474L18.5913 17.6793L17.7995 17.4474L18.0314 18.2392L17.7995 19.031ZM26.2394 16.7498L25.4476 16.9817L25.6795 16.1899L25.4476 15.3981L26.2394 15.63L27.0312 15.3981L26.7993 16.1899L27.0312 16.9817L26.2394 16.7498ZM15.75 11.3829L16.5418 11.151L17.3336 11.3829L17.1017 10.5912L17.3336 9.79937L16.5418 10.0313L15.75 9.79937L15.9819 10.5912L15.75 11.3829ZM24.1899 18.7991L23.3981 19.031L23.63 18.2392L23.3981 17.4474L24.1899 17.6793L24.9817 17.4474L24.7498 18.2392L24.9817 19.031L24.1899 18.7991ZM17.7995 9.33365L18.5913 9.10175L19.3831 9.33365L19.1512 8.54187L19.3831 7.75009L18.5913 7.982L17.7995 7.75009L18.0314 8.54187L17.7995 9.33365Z" fill="#FFD429"/>
</svg>
