<svg width="18" height="16" viewBox="0 0 18 16" fill="none" xmlns="http://www.w3.org/2000/svg">
<path d="M16.6316 14.3158C16.6316 14.2105 16.6316 14.1053 16.6316 14.1053V5.1579C16.6316 4.21053 16 3.57895 15.1579 3.57895H6.10526C5.26316 3.57895 4.73684 4.31579 4.73684 5.1579V14.1053C4.73684 15.0526 5.36842 15.6842 6.21053 15.6842H15.2632H18L16.6316 14.3158ZM7.78947 7.89474V6.94737H13.6842V7.89474H7.78947ZM7.78947 10.1053V9.1579H13.6842V10.1053H7.78947ZM7.78947 12.3158V11.3684H11.7895V12.3158H7.78947ZM5.15789 1.57895C3.89474 1.57895 2.94737 2.63158 2.94737 4V12.1053H1.47368C0.631579 12.1053 0 11.3684 0 10.5263V1.57895C0 0.631579 0.631579 0 1.36842 0H12.2105C12.9474 0 13.5789 0.736842 13.5789 1.57895H5.15789Z" fill="#CAD5F9"/>
</svg>
