<svg width="20" height="15" viewBox="0 0 20 15" fill="none" xmlns="http://www.w3.org/2000/svg">
<g clip-path="url(#clip0_1444_108)">
<path d="M17.3 1.1C16.9 0.4 16.3 0 15.7 0H1.7C0.7 0 0 0.9 0 2V10.8C0 11.7 0.5 12.5 1.3 12.7V3.3C1.3 2.1 2.3 1.1 3.2 1.1H17.3Z" fill="#CAD5F9"/>
<path d="M18 2H3.99999C2.99999 2 2.29999 2.9 2.29999 4V5.7H19.9V4C19.7 2.9 18.9 2 18 2Z" fill="#CAD5F9"/>
<path d="M2.29999 12.9C2.29999 14 3.09999 14.9 4.09999 14.9H18.1C19.1 14.9 19.9 14 19.9 12.9V6.7H2.29999V12.9Z" fill="#CAD5F9"/>
</g>
<defs>
<clipPath id="clip0_1444_108">
<rect width="19.9" height="14.9" fill="white"/>
</clipPath>
</defs>
</svg>
