<svg width="18" height="18" viewBox="0 0 18 18" fill="none" xmlns="http://www.w3.org/2000/svg">
<path d="M16 2V3.2H9.4V2H16ZM3.4 2V3.2H2V2H3.4ZM16 8.4V9.6H9.4V8.4H16ZM3.4 8.4V9.6H2V8.4H3.4ZM16 14.8V16H9.4V14.8H16ZM3.4 14.8V16H2V14.8H3.4ZM16.9 0H7.4V5.2H16.9C17.5 5.2 18 4.7 18 4.1V1.1C18 0.5 17.5 0 16.9 0ZM5.4 0H1.1C0.5 0 0 0.5 0 1.1V4.1C0 4.7 0.5 5.2 1.1 5.2H5.4V0ZM16.9 6.4H7.4V11.6H16.9C17.5 11.6 18 11.1 18 10.5V7.5C18 6.9 17.5 6.4 16.9 6.4ZM5.4 6.4H1.1C0.5 6.4 0 6.9 0 7.5V10.5C0 11.1 0.5 11.6 1.1 11.6H5.4V6.4ZM16.9 12.8H7.4V18H16.9C17.5 18 18 17.5 18 16.9V13.9C18 13.3 17.5 12.8 16.9 12.8ZM5.4 12.8H1.1C0.5 12.8 0 13.3 0 13.9V16.9C0 17.5 0.5 18 1.1 18H5.4V12.8Z" fill="#CAD5F9"/>
</svg>
