<svg width="42" height="28" viewBox="0 0 42 28" fill="none" xmlns="http://www.w3.org/2000/svg">
<rect x="2" y="2" width="38" height="24.0667" rx="2.53333" fill="white"/>
<rect x="1.36667" y="1.36667" width="39.2667" height="25.3333" rx="3.16667" stroke="#E0F5FF" stroke-opacity="0.5" stroke-width="1.26667"/>
<mask id="mask0_2_531" style="mask-type:luminance" maskUnits="userSpaceOnUse" x="2" y="2" width="38" height="25">
<rect x="2" y="2" width="38" height="24.0667" rx="2.53333" fill="white"/>
</mask>
<g mask="url(#mask0_2_531)">
<path fill-rule="evenodd" clip-rule="evenodd" d="M40 2H2V3.60444H40V2ZM40 5.20872H2V6.81317H40V5.20872ZM2 8.41745H40V10.0219H2V8.41745ZM40 11.6268H2V13.2312H40V11.6268ZM2 14.8355H40V16.44H2V14.8355ZM40 18.0442H2V19.6487H40V18.0442ZM2 21.2536H40V22.858H2V21.2536ZM40 24.4623H2V26.0668H40V24.4623Z" fill="#D02F44"/>
<rect x="2" y="2" width="14.44" height="11.2311" fill="#46467F"/>
<g filter="url(#filter0_d_2_531)">
<path fill-rule="evenodd" clip-rule="evenodd" d="M7.61368 5.20868C8.05674 5.20868 8.41591 4.84951 8.41591 4.40646C8.41591 3.9634 8.05674 3.60423 7.61368 3.60423C7.17063 3.60423 6.81146 3.9634 6.81146 4.40646C6.81146 4.84951 7.17063 5.20868 7.61368 5.20868ZM4.40535 5.20881C4.84841 5.20881 5.20757 4.84964 5.20757 4.40659C5.20757 3.96353 4.84841 3.60436 4.40535 3.60436C3.9623 3.60436 3.60313 3.96353 3.60313 4.40659C3.60313 4.84964 3.9623 5.20881 4.40535 5.20881ZM11.6246 4.40646C11.6246 4.84951 11.2655 5.20868 10.8224 5.20868C10.3794 5.20868 10.0202 4.84951 10.0202 4.40646C10.0202 3.9634 10.3794 3.60423 10.8224 3.60423C11.2655 3.60423 11.6246 3.9634 11.6246 4.40646ZM14.0311 5.20868C14.4742 5.20868 14.8334 4.84951 14.8334 4.40646C14.8334 3.9634 14.4742 3.60423 14.0311 3.60423C13.5881 3.60423 13.2289 3.9634 13.2289 4.40646C13.2289 4.84951 13.5881 5.20868 14.0311 5.20868ZM6.81031 6.01082C6.81031 6.45387 6.45114 6.81304 6.00808 6.81304C5.56503 6.81304 5.20586 6.45387 5.20586 6.01082C5.20586 5.56776 5.56503 5.20859 6.00808 5.20859C6.45114 5.20859 6.81031 5.56776 6.81031 6.01082ZM9.21928 6.81304C9.66234 6.81304 10.0215 6.45387 10.0215 6.01082C10.0215 5.56776 9.66234 5.20859 9.21928 5.20859C8.77623 5.20859 8.41706 5.56776 8.41706 6.01082C8.41706 6.45387 8.77623 6.81304 9.21928 6.81304ZM13.2302 6.01082C13.2302 6.45387 12.8711 6.81304 12.428 6.81304C11.985 6.81304 11.6258 6.45387 11.6258 6.01082C11.6258 5.56776 11.985 5.20859 12.428 5.20859C12.8711 5.20859 13.2302 5.56776 13.2302 6.01082ZM14.0311 8.4174C14.4742 8.4174 14.8334 8.05823 14.8334 7.61518C14.8334 7.17212 14.4742 6.81296 14.0311 6.81296C13.5881 6.81296 13.2289 7.17212 13.2289 7.61518C13.2289 8.05823 13.5881 8.4174 14.0311 8.4174ZM11.6246 7.61518C11.6246 8.05823 11.2655 8.4174 10.8224 8.4174C10.3794 8.4174 10.0202 8.05823 10.0202 7.61518C10.0202 7.17212 10.3794 6.81296 10.8224 6.81296C11.2655 6.81296 11.6246 7.17212 11.6246 7.61518ZM7.61368 8.4174C8.05674 8.4174 8.41591 8.05823 8.41591 7.61518C8.41591 7.17212 8.05674 6.81296 7.61368 6.81296C7.17063 6.81296 6.81146 7.17212 6.81146 7.61518C6.81146 8.05823 7.17063 8.4174 7.61368 8.4174ZM5.20718 7.61518C5.20718 8.05823 4.84801 8.4174 4.40496 8.4174C3.9619 8.4174 3.60274 8.05823 3.60274 7.61518C3.60274 7.17212 3.9619 6.81296 4.40496 6.81296C4.84801 6.81296 5.20718 7.17212 5.20718 7.61518ZM6.00808 10.0218C6.45114 10.0218 6.81031 9.6626 6.81031 9.21954C6.81031 8.77649 6.45114 8.41732 6.00808 8.41732C5.56503 8.41732 5.20586 8.77649 5.20586 9.21954C5.20586 9.6626 5.56503 10.0218 6.00808 10.0218ZM10.0215 9.21954C10.0215 9.6626 9.66234 10.0218 9.21928 10.0218C8.77623 10.0218 8.41706 9.6626 8.41706 9.21954C8.41706 8.77649 8.77623 8.41732 9.21928 8.41732C9.66234 8.41732 10.0215 8.77649 10.0215 9.21954ZM12.428 10.0218C12.8711 10.0218 13.2302 9.6626 13.2302 9.21954C13.2302 8.77649 12.8711 8.41732 12.428 8.41732C11.985 8.41732 11.6258 8.77649 11.6258 9.21954C11.6258 9.6626 11.985 10.0218 12.428 10.0218ZM14.8334 10.8239C14.8334 11.267 14.4742 11.6261 14.0311 11.6261C13.5881 11.6261 13.2289 11.267 13.2289 10.8239C13.2289 10.3808 13.5881 10.0217 14.0311 10.0217C14.4742 10.0217 14.8334 10.3808 14.8334 10.8239ZM10.8224 11.6261C11.2655 11.6261 11.6246 11.267 11.6246 10.8239C11.6246 10.3808 11.2655 10.0217 10.8224 10.0217C10.3794 10.0217 10.0202 10.3808 10.0202 10.8239C10.0202 11.267 10.3794 11.6261 10.8224 11.6261ZM8.41591 10.8239C8.41591 11.267 8.05674 11.6261 7.61368 11.6261C7.17063 11.6261 6.81146 11.267 6.81146 10.8239C6.81146 10.3808 7.17063 10.0217 7.61368 10.0217C8.05674 10.0217 8.41591 10.3808 8.41591 10.8239ZM4.40496 11.6261C4.84801 11.6261 5.20718 11.267 5.20718 10.8239C5.20718 10.3808 4.84801 10.0217 4.40496 10.0217C3.9619 10.0217 3.60274 10.3808 3.60274 10.8239C3.60274 11.267 3.9619 11.6261 4.40496 11.6261Z" fill="url(#paint0_linear_2_531)"/>
</g>
</g>
<defs>
<filter id="filter0_d_2_531" x="3.60274" y="3.60423" width="11.2306" height="9.28856" filterUnits="userSpaceOnUse" color-interpolation-filters="sRGB">
<feFlood flood-opacity="0" result="BackgroundImageFix"/>
<feColorMatrix in="SourceAlpha" type="matrix" values="0 0 0 0 0 0 0 0 0 0 0 0 0 0 0 0 0 0 127 0" result="hardAlpha"/>
<feOffset dy="1.26667"/>
<feColorMatrix type="matrix" values="0 0 0 0 0 0 0 0 0 0 0 0 0 0 0 0 0 0 0.06 0"/>
<feBlend mode="normal" in2="BackgroundImageFix" result="effect1_dropShadow_2_531"/>
<feBlend mode="normal" in="SourceGraphic" in2="effect1_dropShadow_2_531" result="shape"/>
</filter>
<linearGradient id="paint0_linear_2_531" x1="3.60274" y1="3.60423" x2="3.60274" y2="11.6261" gradientUnits="userSpaceOnUse">
<stop stop-color="white"/>
<stop offset="1" stop-color="#F0F0F0"/>
</linearGradient>
</defs>
</svg>
